Samaano_Wide-Bold.ufo
<glyph name="exclam" format="2">
  <advance width="2048"/>
  <unicode hex="0021"/>
  <outline>
    <contour>
      <point x="528" y="126" type="line"/>
      <point x="672" y="126" type="line"/>
      <point x="672" y="374" type="line"/>
      <point x="528" y="374" type="line"/>
    </contour>
    <contour>
      <point x="538" y="611" type="line"/>
      <point x="666" y="611" type="line"/>
      <point x="666" y="1629" type="line"/>
      <point x="538" y="1629" type="line"/>
    </contour>
  </outline>
</glyph>
<glyph name="hyphen" format="2">
  <advance width="2048"/>
  <unicode hex="002D"/>
  <outline>
    <contour>
      <point x="99" y="808" type="line"/>
      <point x="99" y="600" type="line"/>
      <point x="925" y="600" type="line"/>
      <point x="925" y="808" type="line"/>
    </contour>
  </outline>
</glyph>
<glyph name="zero" format="2">
  <advance width="2048"/>
  <unicode hex="0030"/>
  <outline>
    <contour>
      <point x="127" y="1" type="line"/>
      <point x="127" y="963" type="line"/>
      <point x="329" y="962" type="line"/>
      <point x="329" y="0" type="line"/>
    </contour>
    <contour>
      <point x="126" y="883" type="line"/>
      <point x="126" y="1639" type="line"/>
      <point x="330" y="1639" type="line"/>
      <point x="330" y="883" type="line"/>
    </contour>
    <contour>
      <point x="169" y="207" type="line"/>
      <point x="1890" y="208" type="line"/>
      <point x="1892" y="0" type="line"/>
      <point x="171" y="3" type="line"/>
    </contour>
    <contour>
      <point x="127" y="1418" type="line"/>
      <point x="125" y="1638" type="line"/>
      <point x="1893" y="1641" type="line"/>
      <point x="1893" y="1418" type="line"/>
    </contour>
    <contour>
      <point x="1750" y="-1" type="line"/>
      <point x="1750" y="950" type="line"/>
      <point x="1948" y="950" type="line"/>
      <point x="1948" y="0" type="line"/>
    </contour>
    <contour>
      <point x="1751" y="884" type="line"/>
      <point x="1751" y="1640" type="line"/>
      <point x="1945" y="1640" type="line"/>
      <point x="1945" y="884" type="line"/>
    </contour>
    <contour>
      <point x="460" y="1013" type="line"/>
      <point x="460" y="747" type="line"/>
      <point x="1634" y="747" type="line"/>
      <point x="1634" y="1013" type="line"/>
    </contour>
  </outline>
</glyph>
<glyph name="two" format="2">
  <advance width="2048"/>
  <unicode hex="0032"/>
  <outline>
    <contour>
      <point x="522" y="130" type="line"/>
      <point x="522" y="1024" type="line"/>
      <point x="830" y="1024" type="line"/>
      <point x="830" y="130" type="line"/>
    </contour>
    <contour>
      <point x="526" y="247" type="line"/>
      <point x="1382" y="259" type="line"/>
      <point x="1384" y="0" type="line"/>
      <point x="532" y="0" type="line"/>
    </contour>
    <contour>
      <point x="654" y="1433" type="line"/>
      <point x="654" y="1640" type="line"/>
      <point x="1333" y="1640" type="line"/>
      <point x="1333" y="1433" type="line"/>
    </contour>
    <contour>
      <point x="824" y="751" type="line"/>
      <point x="824" y="1024" type="line"/>
      <point x="1307" y="1024" type="line"/>
      <point x="1307" y="751" type="line"/>
    </contour>
    <contour>
      <point x="1292" y="751" type="line"/>
      <point x="1292" y="1640" type="line"/>
      <point x="1526" y="1640" type="line"/>
      <point x="1526" y="751" type="line"/>
    </contour>
  </outline>
</glyph>
<glyph name="three" format="2">
  <advance width="2048"/>
  <unicode hex="0033"/>
  <outline>
    <contour>
      <point x="570.5" y="240" type="line"/>
      <point x="1468.5" y="242" type="line"/>
      <point x="1471.5" y="-8" type="line"/>
      <point x="580.5" y="9" type="line"/>
    </contour>
    <contour>
      <point x="602.5" y="1403" type="line"/>
      <point x="600.5" y="1631" type="line"/>
      <point x="1356.5" y="1640" type="line"/>
      <point x="1356.5" y="1403" type="line"/>
    </contour>
    <contour>
      <point x="612.5" y="736" type="line"/>
      <point x="612.5" y="1001" type="line"/>
      <point x="1477.5" y="1001" type="line"/>
      <point x="1477.5" y="736" type="line"/>
    </contour>
    <contour>
      <point x="1269.5" y="200" type="line"/>
      <point x="1269.5" y="756" type="line"/>
      <point x="1474.5" y="756" type="line"/>
      <point x="1474.5" y="200" type="line"/>
    </contour>
    <contour>
      <point x="1267.5" y="964" type="line"/>
      <point x="1267.5" y="1640" type="line"/>
      <point x="1474.5" y="1640" type="line"/>
      <point x="1474.5" y="964" type="line"/>
    </contour>
  </outline>
</glyph>
<glyph name="four" format="2">
  <advance width="2048"/>
  <unicode hex="0034"/>
  <outline>
    <contour>
      <point x="602.5" y="884" type="line"/>
      <point x="602.5" y="1640" type="line"/>
      <point x="805.5" y="1640" type="line"/>
      <point x="805.5" y="884" type="line"/>
    </contour>
    <contour>
      <point x="601.5" y="759" type="line"/>
      <point x="601.5" y="986" type="line"/>
      <point x="1442.5" y="988" type="line"/>
      <point x="1442.5" y="761" type="line"/>
    </contour>
    <contour>
      <point x="1237.5" y="7" type="line"/>
      <point x="1237.5" y="818" type="line"/>
      <point x="1446.5" y="818" type="line"/>
      <point x="1446.5" y="7" type="line"/>
    </contour>
    <contour>
      <point x="1246.5" y="940" type="line"/>
      <point x="1246.5" y="1627" type="line"/>
      <point x="1440.5" y="1627" type="line"/>
      <point x="1440.5" y="940" type="line"/>
    </contour>
  </outline>
</glyph>
<glyph name="five" format="2">
  <advance width="2048"/>
  <unicode hex="0035"/>
  <outline>
    <contour>
      <point x="553.5" y="863" type="line"/>
      <point x="553.5" y="1619" type="line"/>
      <point x="756.5" y="1619" type="line"/>
      <point x="756.5" y="863" type="line"/>
    </contour>
    <contour>
      <point x="552.5" y="190" type="line"/>
      <point x="1491.5" y="188" type="line"/>
      <point x="1490.5" y="-2" type="line"/>
      <point x="549.5" y="0" type="line"/>
    </contour>
    <contour>
      <point x="554.5" y="1418" type="line"/>
      <point x="554.5" y="1629" type="line"/>
      <point x="1498.5" y="1641" type="line"/>
      <point x="1498.5" y="1418" type="line"/>
    </contour>
    <contour>
      <point x="553.5" y="759" type="line"/>
      <point x="553.5" y="986" type="line"/>
      <point x="1488.5" y="986" type="line"/>
      <point x="1488.5" y="759" type="line"/>
    </contour>
    <contour>
      <point x="1284.5" y="52" type="line"/>
      <point x="1284.5" y="947" type="line"/>
      <point x="1489.5" y="947" type="line"/>
      <point x="1489.5" y="52" type="line"/>
    </contour>
  </outline>
</glyph>
<glyph name="eight" format="2">
  <advance width="2048"/>
  <unicode hex="0038"/>
  <outline>
    <contour>
      <point x="574.5" y="0" type="line"/>
      <point x="574.5" y="856" type="line"/>
      <point x="772.5" y="856" type="line"/>
      <point x="772.5" y="0" type="line"/>
    </contour>
    <contour>
      <point x="574.5" y="895" type="line"/>
      <point x="567.5" y="1639" type="line"/>
      <point x="771.5" y="1639" type="line"/>
      <point x="772.5" y="896" type="line"/>
    </contour>
    <contour>
      <point x="583.5" y="0" type="line"/>
      <point x="582.5" y="212" type="line"/>
      <point x="1480.5" y="213" type="line"/>
      <point x="1480.5" y="-3" type="line"/>
    </contour>
    <contour>
      <point x="618.5" y="1415" type="line"/>
      <point x="618.5" y="1638" type="line"/>
      <point x="1424.5" y="1639" type="line"/>
      <point x="1424.5" y="1417" type="line"/>
    </contour>
    <contour>
      <point x="574.5" y="759" type="line"/>
      <point x="574.5" y="986" type="line"/>
      <point x="1479.5" y="986" type="line"/>
      <point x="1479.5" y="759" type="line"/>
    </contour>
    <contour>
      <point x="1291.5" y="33" type="line"/>
      <point x="1291.5" y="864" type="line"/>
      <point x="1479.5" y="864" type="line"/>
      <point x="1479.5" y="33" type="line"/>
    </contour>
    <contour>
      <point x="1286.5" y="950" type="line"/>
      <point x="1286.5" y="1638" type="line"/>
      <point x="1480.5" y="1638" type="line"/>
      <point x="1479.5" y="948" type="line"/>
    </contour>
  </outline>
</glyph>
<glyph name="nine" format="2">
  <advance width="2048"/>
  <unicode hex="0039"/>
  <outline>
    <contour>
      <point x="551.5" y="868" type="line"/>
      <point x="551.5" y="1624" type="line"/>
      <point x="754.5" y="1624" type="line"/>
      <point x="754.5" y="868" type="line"/>
    </contour>
    <contour>
      <point x="628.5" y="205" type="line"/>
      <point x="1406.5" y="208" type="line"/>
      <point x="1409.5" y="-1" type="line"/>
      <point x="640.5" y="-1" type="line"/>
    </contour>
    <contour>
      <point x="552.5" y="1419" type="line"/>
      <point x="551.5" y="1640" type="line"/>
      <point x="1486.5" y="1637" type="line"/>
      <point x="1487.5" y="1416" type="line"/>
    </contour>
    <contour>
      <point x="551.5" y="759" type="line"/>
      <point x="551.5" y="986" type="line"/>
      <point x="1491.5" y="986" type="line"/>
      <point x="1491.5" y="759" type="line"/>
    </contour>
    <contour>
      <point x="1291.5" y="1" type="line"/>
      <point x="1292.5" y="838" type="line"/>
      <point x="1492.5" y="833" type="line"/>
      <point x="1496.5" y="0" type="line"/>
    </contour>
    <contour>
      <point x="1292.5" y="879" type="line"/>
      <point x="1292.5" y="1511" type="line"/>
      <point x="1486.5" y="1511" type="line"/>
      <point x="1491.5" y="879" type="line"/>
    </contour>
  </outline>
</glyph>
<glyph name="semicolon" format="2">
  <advance width="2048"/>
  <unicode hex="003B"/>
  <outline>
    <contour>
      <point x="911.5" y="430" type="line"/>
      <point x="911.5" y="201" type="line"/>
      <point x="1159.5" y="201" type="line"/>
      <point x="1159.5" y="430" type="line"/>
    </contour>
    <contour>
      <point x="1010.5" y="328" type="line"/>
      <point x="892.5" y="47" type="line"/>
      <point x="1035.5" y="-13" type="line"/>
      <point x="1157.5" y="197" type="line"/>
    </contour>
    <contour>
      <point x="888.5" y="871" type="line"/>
      <point x="888.5" y="624" type="line"/>
      <point x="1153.5" y="624" type="line"/>
      <point x="1153.5" y="871" type="line"/>
    </contour>
  </outline>
</glyph>
<glyph name="less" format="2">
  <advance width="2048"/>
  <unicode hex="003C"/>
  <outline>
    <contour>
      <point x="613.5" y="777" type="line"/>
      <point x="613.5" y="569" type="line"/>
      <point x="1434.5" y="807" type="line"/>
      <point x="1431.5" y="1013" type="line"/>
    </contour>
    <contour>
      <point x="613.5" y="777" type="line"/>
      <point x="613.5" y="569" type="line"/>
      <point x="1429.5" y="122" type="line"/>
      <point x="1429.5" y="319" type="line"/>
    </contour>
  </outline>
</glyph>
<glyph name="question" format="2">
  <advance width="2048"/>
  <unicode hex="003F"/>
  <outline>
    <contour>
      <point x="880.5" y="246" type="line"/>
      <point x="880.5" y="0" type="line"/>
      <point x="1130.5" y="0" type="line"/>
      <point x="1125.5" y="247" type="line"/>
    </contour>
    <contour>
      <point x="703.5" y="1519" type="line"/>
      <point x="703.5" y="1333" type="line"/>
      <point x="1340.5" y="1333" type="line"/>
      <point x="1340.5" y="1519" type="line"/>
    </contour>
    <contour>
      <point x="1150.5" y="1514" type="line"/>
      <point x="1150.5" y="966" type="line"/>
      <point x="1344.5" y="966" type="line"/>
      <point x="1344.5" y="1514" type="line"/>
    </contour>
    <contour>
      <point x="880.5" y="1015" type="line"/>
      <point x="880.5" y="816" type="line"/>
      <point x="1344.5" y="816" type="line"/>
      <point x="1344.5" y="1015" type="line"/>
    </contour>
    <contour>
      <point x="880.5" y="1011" type="line"/>
      <point x="880.5" y="392" type="line"/>
      <point x="1128.5" y="392" type="line"/>
      <point x="1128.5" y="1011" type="line"/>
    </contour>
  </outline>
</glyph>
<glyph name="at" format="2">
  <advance width="2048"/>
  <unicode hex="0040"/>
  <outline>
    <contour>
      <point x="613" y="1024" type="line"/>
      <point x="614" y="879" type="line"/>
      <point x="1428" y="879" type="line"/>
      <point x="1432" y="1024" type="line"/>
    </contour>
    <contour>
      <point x="1149" y="592" type="line"/>
      <point x="1148" y="-1" type="line"/>
      <point x="1306" y="0" type="line"/>
      <point x="1302" y="592" type="line"/>
    </contour>
    <contour>
      <point x="816" y="602" type="line"/>
      <point x="818" y="445" type="line"/>
      <point x="1241" y="444" type="line"/>
      <point x="1241" y="600" type="line"/>
    </contour>
    <contour>
      <point x="813" y="589" type="line"/>
      <point x="813" y="12" type="line"/>
      <point x="987" y="12" type="line"/>
      <point x="987" y="589" type="line"/>
    </contour>
    <contour>
      <point x="811" y="187" type="line"/>
      <point x="812" y="-2" type="line"/>
      <point x="1305" y="0" type="line"/>
      <point x="1305" y="188" type="line"/>
    </contour>
    <contour>
      <point x="525" y="1024" type="line"/>
      <point x="526" y="-223" type="line"/>
      <point x="701" y="-223" type="line"/>
      <point x="701" y="1024" type="line"/>
    </contour>
    <contour>
      <point x="523" y="-86" type="line"/>
      <point x="523" y="-258" type="line"/>
      <point x="1471" y="-258" type="line"/>
      <point x="1471" y="-86" type="line"/>
    </contour>
    <contour>
      <point x="1374" y="1011" type="line"/>
      <point x="1374" y="0" type="line"/>
      <point x="1525" y="0" type="line"/>
      <point x="1525" y="1011" type="line"/>
    </contour>
    <contour>
      <point x="1246" y="175" type="line"/>
      <point x="1246" y="1" type="line"/>
      <point x="1455" y="1" type="line"/>
      <point x="1455" y="175" type="line"/>
    </contour>
  </outline>
</glyph>
<glyph name="A" format="2">
  <advance width="2048"/>
  <unicode hex="0041"/>
  <guideline x="0" y="2457" angle="0" name="WIN-ASCENT"/>
  <guideline x="0" y="1024" angle="0" name="X_HEIGHT"/>
  <guideline x="0" y="1548" angle="0" name="CAPS_HEIFGHT"/>
  <outline>
    <contour>
      <point x="128" y="1" type="line"/>
      <point x="325" y="0" type="line"/>
      <point x="324" y="1548" type="line"/>
      <point x="125" y="1548" type="line"/>
    </contour>
    <contour>
      <point x="182" y="1337" type="line"/>
      <point x="1858" y="1332" type="line"/>
      <point x="1854" y="1548" type="line"/>
      <point x="186" y="1548" type="line"/>
    </contour>
    <contour>
      <point x="204" y="1025" type="line"/>
      <point x="202" y="840" type="line"/>
      <point x="1842" y="849" type="line"/>
      <point x="1842" y="1025" type="line"/>
    </contour>
    <contour>
      <point x="1731" y="0" type="line"/>
      <point x="1931" y="0" type="line"/>
      <point x="1929" y="1548" type="line"/>
      <point x="1729" y="1548" type="line"/>
    </contour>
  </outline>
</glyph>
<glyph name="B" format="2">
  <advance width="2048"/>
  <unicode hex="0042"/>
  <outline>
    <contour>
      <point x="140" y="2" type="line"/>
      <point x="324" y="1" type="line"/>
      <point x="318" y="1533" type="line"/>
      <point x="110" y="1534" type="line"/>
    </contour>
    <contour>
      <point x="1456" y="1331" type="line"/>
      <point x="1974" y="989" type="line"/>
      <point x="1971" y="1215" type="line"/>
      <point x="1458" y="1536" type="line"/>
    </contour>
    <contour>
      <point x="1459" y="820" type="line"/>
      <point x="1977" y="991" type="line"/>
      <point x="1972" y="1215" type="line"/>
      <point x="1457" y="1020" type="line"/>
    </contour>
    <contour>
      <point x="1399" y="201" type="line"/>
      <point x="1399" y="1" type="line"/>
      <point x="1937" y="364" type="line"/>
      <point x="1953" y="588" type="line"/>
    </contour>
    <contour>
      <point x="1463" y="567" type="line"/>
      <point x="1937" y="364" type="line"/>
      <point x="1953" y="586" type="line"/>
      <point x="1466" y="766" type="line"/>
    </contour>
    <contour>
      <point x="271" y="1020" type="line"/>
      <point x="272" y="820" type="line"/>
      <point x="1459" y="820" type="line"/>
      <point x="1457" y="1021" type="line"/>
    </contour>
    <contour>
      <point x="270" y="766" type="line"/>
      <point x="269" y="567" type="line"/>
      <point x="1465" y="567" type="line"/>
      <point x="1466" y="766" type="line"/>
    </contour>
    <contour>
      <point x="208" y="200" type="line"/>
      <point x="208" y="1" type="line"/>
      <point x="1399" y="1" type="line"/>
      <point x="1399" y="200" type="line"/>
    </contour>
    <contour>
      <point x="270" y="1535" type="line"/>
      <point x="269" y="1331" type="line"/>
      <point x="1456" y="1331" type="line"/>
      <point x="1457" y="1535" type="line"/>
    </contour>
  </outline>
</glyph>
<glyph name="D" format="2">
  <advance width="2048"/>
  <unicode hex="0044"/>
  <outline>
    <contour>
      <point x="107" y="1547" type="line"/>
      <point x="142" y="-1" type="line"/>
      <point x="342" y="0" type="line"/>
      <point x="309" y="1548" type="line"/>
    </contour>
    <contour>
      <point x="1433" y="1550" type="line"/>
      <point x="1434" y="1350" type="line"/>
      <point x="1918" y="767" type="line"/>
      <point x="1916" y="1019" type="line"/>
    </contour>
    <contour>
      <point x="1441" y="201" type="line"/>
      <point x="1442" y="1" type="line"/>
      <point x="1915" y="769" type="line"/>
      <point x="1913" y="1025" type="line"/>
    </contour>
    <contour>
      <point x="271" y="1548" type="line"/>
      <point x="271" y="1349" type="line"/>
      <point x="1434" y="1349" type="line"/>
      <point x="1433" y="1549" type="line"/>
    </contour>
    <contour>
      <point x="279" y="199" type="line"/>
      <point x="279" y="0" type="line"/>
      <point x="1442" y="0" type="line"/>
      <point x="1441" y="200" type="line"/>
    </contour>
  </outline>
</glyph>
<glyph name="K" format="2">
  <advance width="2048"/>
  <unicode hex="004B"/>
  <outline>
    <contour>
      <point x="118" y="1535" type="line"/>
      <point x="118" y="5" type="line"/>
      <point x="319" y="5" type="line"/>
      <point x="319" y="1535" type="line"/>
    </contour>
    <contour>
      <point x="163" y="999" type="line"/>
      <point x="282" y="835" type="line"/>
      <point x="1889" y="1529" type="line"/>
      <point x="1622" y="1536" type="line"/>
    </contour>
    <contour>
      <point x="293" y="798" type="line"/>
      <point x="156" y="643" type="line"/>
      <point x="1661" y="-1" type="line"/>
      <point x="1942" y="0" type="line"/>
    </contour>
  </outline>
</glyph>
<glyph name="L" format="2">
  <advance width="2048"/>
  <unicode hex="004C"/>
  <outline>
    <contour>
      <point x="53" y="1542" type="line"/>
      <point x="53" y="3" type="line"/>
      <point x="251" y="3" type="line"/>
      <point x="251" y="1542" type="line"/>
    </contour>
    <contour>
      <point x="162" y="202" type="line"/>
      <point x="167" y="3" type="line"/>
      <point x="1843" y="3" type="line"/>
      <point x="1838" y="202" type="line"/>
    </contour>
  </outline>
</glyph>
<glyph name="M" format="2">
  <advance width="2048"/>
  <unicode hex="004D"/>
  <outline>
    <contour>
      <point x="101" y="1546" type="line"/>
      <point x="101" y="2" type="line"/>
      <point x="304" y="2" type="line"/>
      <point x="304" y="1546" type="line"/>
    </contour>
    <contour>
      <point x="1672" y="1541" type="line"/>
      <point x="1672" y="-3" type="line"/>
      <point x="1874" y="-3" type="line"/>
      <point x="1874" y="1541" type="line"/>
    </contour>
    <contour>
      <point x="138" y="1429" type="line"/>
      <point x="853" y="1026" type="line"/>
      <point x="1041" y="1031" type="line"/>
      <point x="280" y="1546" type="line"/>
    </contour>
    <contour>
      <point x="1699" y="1541" type="line"/>
      <point x="852" y="1027" type="line"/>
      <point x="1039" y="1025" type="line"/>
      <point x="1865" y="1488" type="line"/>
    </contour>
  </outline>
</glyph>
<glyph name="P" format="2">
  <advance width="2048"/>
  <unicode hex="0050"/>
  <outline>
    <contour>
      <point x="112" y="1545" type="line"/>
      <point x="112" y="9" type="line"/>
      <point x="302" y="9" type="line"/>
      <point x="302" y="1545" type="line"/>
    </contour>
    <contour>
      <point x="191" y="1545" type="line"/>
      <point x="190" y="1346" type="line"/>
      <point x="1797" y="1346" type="line"/>
      <point x="1797" y="1545" type="line"/>
    </contour>
    <contour>
      <point x="1617" y="1545" type="line"/>
      <point x="1617" y="881" type="line"/>
      <point x="1817" y="881" type="line"/>
      <point x="1817" y="1545" type="line"/>
    </contour>
    <contour>
      <point x="175" y="1068" type="line"/>
      <point x="175" y="868" type="line"/>
      <point x="1812" y="868" type="line"/>
      <point x="1812" y="1068" type="line"/>
    </contour>
  </outline>
</glyph>
<glyph name="Y" format="2">
  <advance width="2048"/>
  <unicode hex="0059"/>
  <outline>
    <contour>
      <point x="963" y="896" type="line"/>
      <point x="968" y="-2" type="line"/>
      <point x="1170" y="-1" type="line"/>
      <point x="1165" y="897" type="line"/>
    </contour>
    <contour>
      <point x="160" y="1547" type="line"/>
      <point x="160" y="859" type="line"/>
      <point x="360" y="859" type="line"/>
      <point x="360" y="1547" type="line"/>
    </contour>
    <contour>
      <point x="1788" y="1548" type="line"/>
      <point x="1786" y="859" type="line"/>
      <point x="1987" y="859" type="line"/>
      <point x="1987" y="1547" type="line"/>
    </contour>
    <contour>
      <point x="228" y="1019" type="line"/>
      <point x="228" y="859" type="line"/>
      <point x="1897" y="859" type="line"/>
      <point x="1897" y="1019" type="line"/>
    </contour>
  </outline>
</glyph>
<glyph name="bracketleft" format="2">
  <advance width="2048"/>
  <unicode hex="005B"/>
  <outline>
    <contour>
      <point x="890" y="1542" type="line"/>
      <point x="895" y="-242" type="line"/>
      <point x="1017" y="-242" type="line"/>
      <point x="1012" y="1542" type="line"/>
    </contour>
    <contour>
      <point x="944" y="1543" type="line"/>
      <point x="944" y="1416" type="line"/>
      <point x="1153" y="1416" type="line"/>
      <point x="1153" y="1543" type="line"/>
    </contour>
    <contour>
      <point x="944" y="-91" type="line"/>
      <point x="944" y="-242" type="line"/>
      <point x="1158" y="-242" type="line"/>
      <point x="1158" y="-91" type="line"/>
    </contour>
  </outline>
</glyph>
<glyph name="backslash" format="2">
  <advance width="2048"/>
  <unicode hex="005C"/>
  <outline>
    <contour>
      <point x="615" y="1441" type="line"/>
      <point x="1242" y="-13" type="line"/>
      <point x="1433" y="65" type="line"/>
      <point x="807" y="1519" type="line"/>
    </contour>
  </outline>
</glyph>
<glyph name="underscore" format="2">
  <advance width="2048"/>
  <unicode hex="005F"/>
  <outline>
    <contour>
      <point x="-5" y="-5" type="line"/>
      <point x="-9" y="-71" type="line"/>
      <point x="2044" y="-71" type="line"/>
      <point x="2048" y="-5" type="line"/>
    </contour>
  </outline>
</glyph>
<glyph name="a" format="2">
  <advance width="2048"/>
  <unicode hex="0061"/>
  <outline>
    <contour>
      <point x="168" y="1025" type="line"/>
      <point x="168" y="824" type="line"/>
      <point x="1772" y="824" type="line"/>
      <point x="1774" y="1024" type="line"/>
    </contour>
    <contour>
      <point x="1661" y="1025" type="line"/>
      <point x="1658" y="-1" type="line"/>
      <point x="1860" y="1" type="line"/>
      <point x="1855" y="1025" type="line"/>
    </contour>
    <contour>
      <point x="172" y="602" type="line"/>
      <point x="174" y="401" type="line"/>
      <point x="1796" y="400" type="line"/>
      <point x="1796" y="599" type="line"/>
    </contour>
    <contour>
      <point x="172" y="575" type="line"/>
      <point x="172" y="-2" type="line"/>
      <point x="373" y="-2" type="line"/>
      <point x="373" y="575" type="line"/>
    </contour>
    <contour>
      <point x="170" y="200" type="line"/>
      <point x="172" y="-2" type="line"/>
      <point x="1860" y="1" type="line"/>
      <point x="1860" y="201" type="line"/>
    </contour>
  </outline>
</glyph>
<glyph name="d" format="2">
  <advance width="2048"/>
  <unicode hex="0064"/>
  <outline>
    <contour>
      <point x="1692" y="1527" type="line"/>
      <point x="1692" y="0" type="line"/>
      <point x="1893" y="0" type="line"/>
      <point x="1893" y="1527" type="line"/>
    </contour>
    <contour>
      <point x="228" y="1023" type="line"/>
      <point x="233" y="822" type="line"/>
      <point x="1781" y="822" type="line"/>
      <point x="1781" y="1023" type="line"/>
    </contour>
    <contour>
      <point x="132" y="1024" type="line"/>
      <point x="132" y="0" type="line"/>
      <point x="334" y="0" type="line"/>
      <point x="333" y="1022" type="line"/>
    </contour>
    <contour>
      <point x="228" y="195" type="line"/>
      <point x="228" y="-1" type="line"/>
      <point x="1845" y="0" type="line"/>
      <point x="1845" y="195" type="line"/>
    </contour>
  </outline>
</glyph>
<glyph name="f" format="2">
  <advance width="2048"/>
  <unicode hex="0066"/>
  <outline>
    <contour>
      <point x="900" y="1025" type="line"/>
      <point x="889" y="-410" type="line"/>
      <point x="1089" y="-405" type="line"/>
      <point x="1083" y="1026" type="line"/>
    </contour>
    <contour>
      <point x="959" y="1024" type="line"/>
      <point x="959" y="832" type="line"/>
      <point x="2037" y="831" type="line"/>
      <point x="2037" y="1025" type="line"/>
    </contour>
    <contour>
      <point x="132" y="559" type="line"/>
      <point x="132" y="356" type="line"/>
      <point x="1940" y="356" type="line"/>
      <point x="1940" y="559" type="line"/>
    </contour>
  </outline>
</glyph>
<glyph name="i" format="2">
  <advance width="2048"/>
  <unicode hex="0069"/>
  <outline>
    <contour>
      <point x="911" y="1018" type="line"/>
      <point x="911" y="139" type="line"/>
      <point x="1113" y="139" type="line"/>
      <point x="1113" y="1018" type="line"/>
    </contour>
    <contour>
      <point x="141" y="204" type="line"/>
      <point x="141" y="6" type="line"/>
      <point x="1883" y="6" type="line"/>
      <point x="1883" y="204" type="line"/>
    </contour>
    <contour>
      <point x="847" y="1369" type="line"/>
      <point x="847" y="1168" type="line"/>
      <point x="1045" y="1168" type="line"/>
      <point x="1045" y="1369" type="line"/>
    </contour>
    <contour>
      <point x="191" y="1018" type="line"/>
      <point x="191" y="818" type="line"/>
      <point x="1067" y="818" type="line"/>
      <point x="1067" y="1018" type="line"/>
    </contour>
  </outline>
</glyph>
<glyph name="k" format="2">
  <advance width="2048"/>
  <unicode hex="006B"/>
  <outline>
    <contour>
      <point x="118" y="1535" type="line"/>
      <point x="118" y="5" type="line"/>
      <point x="318" y="5" type="line"/>
      <point x="318" y="1535" type="line"/>
    </contour>
    <contour>
      <point x="167" y="516" type="line"/>
      <point x="216" y="298" type="line"/>
      <point x="1903" y="1023" type="line"/>
      <point x="1686" y="1028" type="line"/>
    </contour>
    <contour>
      <point x="482" y="596" type="line"/>
      <point x="272" y="483" type="line"/>
      <point x="1722" y="-3" type="line"/>
      <point x="1960" y="-2" type="line"/>
    </contour>
  </outline>
</glyph>
<glyph name="l" format="2">
  <advance width="2048"/>
  <unicode hex="006C"/>
  <outline>
    <contour>
      <point x="195" y="209" type="line"/>
      <point x="195" y="9" type="line"/>
      <point x="1829" y="9" type="line"/>
      <point x="1829" y="209" type="line"/>
    </contour>
    <contour>
      <point x="912" y="1548" type="line"/>
      <point x="912" y="86" type="line"/>
      <point x="1112" y="86" type="line"/>
      <point x="1112" y="1547" type="line"/>
    </contour>
    <contour>
      <point x="256" y="1548" type="line"/>
      <point x="256" y="1349" type="line"/>
      <point x="991" y="1349" type="line"/>
      <point x="991" y="1548" type="line"/>
    </contour>
  </outline>
</glyph>
<glyph name="m" format="2">
  <advance width="2048"/>
  <unicode hex="006D"/>
  <outline>
    <contour>
      <point x="110" y="993" type="line"/>
      <point x="110" y="1" type="line"/>
      <point x="310" y="1" type="line"/>
      <point x="310" y="993" type="line"/>
    </contour>
    <contour>
      <point x="925" y="972" type="line"/>
      <point x="925" y="-2" type="line"/>
      <point x="1125" y="-2" type="line"/>
      <point x="1125" y="972" type="line"/>
    </contour>
    <contour>
      <point x="1740" y="976" type="line"/>
      <point x="1740" y="1" type="line"/>
      <point x="1940" y="1" type="line"/>
      <point x="1940" y="976" type="line"/>
    </contour>
    <contour>
      <point x="33" y="1021" type="line"/>
      <point x="34" y="820" type="line"/>
      <point x="1940" y="826" type="line"/>
      <point x="1939" y="1027" type="line"/>
    </contour>
  </outline>
</glyph>
<glyph name="n" format="2">
  <advance width="2048"/>
  <unicode hex="006E"/>
  <outline>
    <contour>
      <point x="244" y="990" type="line"/>
      <point x="244" y="-2" type="line"/>
      <point x="445" y="-2" type="line"/>
      <point x="445" y="990" type="line"/>
    </contour>
    <contour>
      <point x="1643" y="976" type="line"/>
      <point x="1643" y="1" type="line"/>
      <point x="1844" y="1" type="line"/>
      <point x="1844" y="976" type="line"/>
    </contour>
    <contour>
      <point x="65" y="1021" type="line"/>
      <point x="66" y="820" type="line"/>
      <point x="1844" y="826" type="line"/>
      <point x="1843" y="1027" type="line"/>
    </contour>
  </outline>
</glyph>
<glyph name="r" format="2">
  <advance width="2048"/>
  <unicode hex="0072"/>
  <outline>
    <contour>
      <point x="165" y="1021" type="line"/>
      <point x="165" y="821" type="line"/>
      <point x="1898" y="821" type="line"/>
      <point x="1898" y="1021" type="line"/>
    </contour>
    <contour>
      <point x="880" y="954" type="line"/>
      <point x="880" y="-2" type="line"/>
      <point x="1080" y="-2" type="line"/>
      <point x="1080" y="954" type="line"/>
    </contour>
    <contour>
      <point x="1698" y="976" type="line"/>
      <point x="1698" y="650" type="line"/>
      <point x="1898" y="650" type="line"/>
      <point x="1898" y="976" type="line"/>
    </contour>
  </outline>
</glyph>
<glyph name="s" format="2">
  <advance width="2048"/>
  <unicode hex="0073"/>
  <outline>
    <contour>
      <point x="186" y="1024" type="line"/>
      <point x="187" y="822" type="line"/>
      <point x="1796" y="826" type="line"/>
      <point x="1795" y="1024" type="line"/>
    </contour>
    <contour>
      <point x="186" y="1024" type="line"/>
      <point x="187" y="736" type="line"/>
      <point x="387" y="736" type="line"/>
      <point x="386" y="1024" type="line"/>
    </contour>
    <contour>
      <point x="187" y="200" type="line"/>
      <point x="186" y="1" type="line"/>
      <point x="1793" y="0" type="line"/>
      <point x="1792" y="201" type="line"/>
    </contour>
    <contour>
      <point x="1591" y="292" type="line"/>
      <point x="1594" y="12" type="line"/>
      <point x="1793" y="12" type="line"/>
      <point x="1791" y="293" type="line"/>
    </contour>
    <contour>
      <point x="187" y="736" type="line"/>
      <point x="1591" y="292" type="line"/>
      <point x="1791" y="293" type="line"/>
      <point x="387" y="736" type="line"/>
    </contour>
  </outline>
</glyph>
<glyph name="t" format="2">
  <advance width="2048"/>
  <unicode hex="0074"/>
  <outline>
    <contour>
      <point x="910" y="1545" type="line"/>
      <point x="910" y="1" type="line"/>
      <point x="1111" y="1" type="line"/>
      <point x="1110" y="1545" type="line"/>
    </contour>
    <contour>
      <point x="918" y="199" type="line"/>
      <point x="918" y="0" type="line"/>
      <point x="1809" y="0" type="line"/>
      <point x="1809" y="199" type="line"/>
    </contour>
    <contour>
      <point x="174" y="1024" type="line"/>
      <point x="175" y="824" type="line"/>
      <point x="1849" y="824" type="line"/>
      <point x="1848" y="1025" type="line"/>
    </contour>
  </outline>
</glyph>
<glyph name="y" format="2">
  <advance width="2048"/>
  <unicode hex="0079"/>
  <outline>
    <contour>
      <point x="1680" y="1023" type="line"/>
      <point x="1680" y="-410" type="line"/>
      <point x="1880" y="-410" type="line"/>
      <point x="1880" y="1023" type="line"/>
    </contour>
    <contour>
      <point x="147" y="-211" type="line"/>
      <point x="147" y="-410" type="line"/>
      <point x="1864" y="-410" type="line"/>
      <point x="1864" y="-211" type="line"/>
    </contour>
    <contour>
      <point x="147" y="1023" type="line"/>
      <point x="147" y="264" type="line"/>
      <point x="347" y="264" type="line"/>
      <point x="347" y="1023" type="line"/>
    </contour>
    <contour>
      <point x="147" y="464" type="line"/>
      <point x="147" y="264" type="line"/>
      <point x="1765" y="264" type="line"/>
      <point x="1765" y="464" type="line"/>
    </contour>
  </outline>
</glyph>
<glyph name="asciitilde" format="2">
  <advance width="2048"/>
  <unicode hex="007E"/>
  <outline>
    <contour>
      <point x="877.5" y="815" type="line"/>
      <point x="877.5" y="716" type="line"/>
      <point x="1227.5" y="655" type="line"/>
      <point x="1227.5" y="754" type="line"/>
    </contour>
    <contour>
      <point x="639.5" y="757" type="line"/>
      <point x="654.5" y="659" type="line"/>
      <point x="877.5" y="716" type="line"/>
      <point x="877.5" y="815" type="line"/>
    </contour>
    <contour>
      <point x="1227.5" y="754" type="line"/>
      <point x="1227.5" y="655" type="line"/>
      <point x="1408.5" y="796" type="line"/>
      <point x="1384.5" y="892" type="line"/>
    </contour>
  </outline>
</glyph>
<glyph name="acutecomb" format="2">
  <advance width="2048"/>
  <unicode hex="0301"/>
  <outline>
    <contour>
      <point x="551" y="980" type="line"/>
      <point x="421" y="726" type="line"/>
      <point x="509" y="680" type="line"/>
      <point x="640" y="935" type="line"/>
    </contour>
  </outline>
</glyph>
<glyph name="uni0904" format="2">
  <advance width="2048"/>
  <unicode hex="0904"/>
  <outline>
    <contour>
      <point x="778" y="2155" type="line"/>
      <point x="778" y="1836" type="line"/>
      <point x="976" y="1836" type="line"/>
      <point x="976" y="2155" type="line"/>
    </contour>
    <contour>
      <point x="777" y="1967" type="line"/>
      <point x="777" y="1768" type="line"/>
      <point x="1948" y="1768" type="line"/>
      <point x="1948" y="1967" type="line"/>
    </contour>
    <contour>
      <point x="1749" y="1956" type="line"/>
      <point x="1749" y="1516" type="line"/>
      <point x="1950" y="1516" type="line"/>
      <point x="1950" y="1956" type="line"/>
    </contour>
    <contour>
      <point x="1716" y="1543" type="line"/>
      <point x="1716" y="1343" type="line"/>
      <point x="2048" y="1343" type="line"/>
      <point x="2048" y="1543" type="line"/>
    </contour>
    <contour>
      <point x="1777" y="1419" type="line"/>
      <point x="1777" y="1" type="line"/>
      <point x="1976" y="1" type="line"/>
      <point x="1976" y="1419" type="line"/>
    </contour>
    <contour>
      <point x="50" y="1547" type="line"/>
      <point x="50" y="1348" type="line"/>
      <point x="1085" y="1348" type="line"/>
      <point x="1085" y="1547" type="line"/>
    </contour>
    <contour>
      <point x="911" y="1550" type="line"/>
      <point x="911" y="140" type="line"/>
      <point x="1111" y="140" type="line"/>
      <point x="1111" y="1550" type="line"/>
    </contour>
    <contour>
      <point x="134" y="894" type="line"/>
      <point x="134" y="693" type="line"/>
      <point x="1831" y="693" type="line"/>
      <point x="1831" y="894" type="line"/>
    </contour>
    <contour>
      <point x="25" y="201" type="line"/>
      <point x="25" y="1" type="line"/>
      <point x="1111" y="1" type="line"/>
      <point x="1111" y="201" type="line"/>
    </contour>
  </outline>
</glyph>
<glyph name="uni0909" format="2">
  <advance width="2048"/>
  <unicode hex="0909"/>
  <outline>
    <contour>
      <point x="-4" y="1548" type="line"/>
      <point x="-4" y="1349" type="line"/>
      <point x="2048" y="1349" type="line"/>
      <point x="2048" y="1548" type="line"/>
    </contour>
    <contour>
      <point x="892" y="1530" type="line"/>
      <point x="892" y="1001" type="line"/>
      <point x="1091" y="1001" type="line"/>
      <point x="1091" y="1530" type="line"/>
    </contour>
    <contour>
      <point x="235" y="1044" type="line"/>
      <point x="235" y="845" type="line"/>
      <point x="1589" y="845" type="line"/>
      <point x="1589" y="1044" type="line"/>
    </contour>
    <contour>
      <point x="1390" y="994" type="line"/>
      <point x="1390" y="8" type="line"/>
      <point x="1590" y="8" type="line"/>
      <point x="1590" y="994" type="line"/>
    </contour>
    <contour>
      <point x="130" y="201" type="line"/>
      <point x="130" y="2" type="line"/>
      <point x="1579" y="2" type="line"/>
      <point x="1579" y="201" type="line"/>
    </contour>
    <contour>
      <point x="130" y="363" type="line"/>
      <point x="130" y="36" type="line"/>
      <point x="330" y="36" type="line"/>
      <point x="330" y="363" type="line"/>
    </contour>
  </outline>
</glyph>
<glyph name="uni090D" format="2">
  <advance width="2048"/>
  <unicode hex="090D"/>
  <outline>
    <contour>
      <point x="153" y="2124" type="line"/>
      <point x="153" y="1639" type="line"/>
      <point x="352" y="1639" type="line"/>
      <point x="352" y="2124" type="line"/>
    </contour>
    <contour>
      <point x="199" y="1842" type="line"/>
      <point x="199" y="1641" type="line"/>
      <point x="1833" y="1641" type="line"/>
      <point x="1833" y="1842" type="line"/>
    </contour>
    <contour>
      <point x="1757" y="2132" type="line"/>
      <point x="1757" y="1641" type="line"/>
      <point x="1957" y="1641" type="line"/>
      <point x="1957" y="2132" type="line"/>
    </contour>
    <contour>
      <point x="-1" y="1548" type="line"/>
      <point x="-1" y="1348" type="line"/>
      <point x="2049" y="1348" type="line"/>
      <point x="2049" y="1548" type="line"/>
    </contour>
    <contour>
      <point x="1747" y="1548" type="line"/>
      <point x="1747" y="782" type="line"/>
      <point x="1947" y="782" type="line"/>
      <point x="1947" y="1548" type="line"/>
    </contour>
    <contour>
      <point x="1654" y="979" type="line"/>
      <point x="1654" y="779" type="line"/>
      <point x="1947" y="779" type="line"/>
      <point x="1947" y="979" type="line"/>
    </contour>
    <contour>
      <point x="138" y="1542" type="line"/>
      <point x="138" y="338" type="line"/>
      <point x="338" y="338" type="line"/>
      <point x="338" y="1542" type="line"/>
    </contour>
    <contour>
      <point x="138" y="497" type="line"/>
      <point x="138" y="297" type="line"/>
      <point x="1250" y="297" type="line"/>
      <point x="1250" y="497" type="line"/>
    </contour>
    <contour>
      <point x="1057" y="473" type="line"/>
      <point x="1057" y="-98" type="line"/>
      <point x="1257" y="-98" type="line"/>
      <point x="1257" y="473" type="line"/>
    </contour>
    <contour>
      <point x="383" y="102" type="line"/>
      <point x="383" y="-98" type="line"/>
      <point x="1255" y="-98" type="line"/>
      <point x="1255" y="102" type="line"/>
    </contour>
  </outline>
</glyph>
<glyph name="uni0911" format="2">
  <advance width="2048"/>
  <unicode hex="0911"/>
  <outline>
    <contour>
      <point x="1328" y="1548" type="line"/>
      <point x="1328" y="1343" type="line"/>
      <point x="2040" y="1343" type="line"/>
      <point x="2040" y="1548" type="line"/>
    </contour>
    <contour>
      <point x="1344" y="1419" type="line"/>
      <point x="1344" y="1" type="line"/>
      <point x="1543" y="1" type="line"/>
      <point x="1543" y="1419" type="line"/>
    </contour>
    <contour>
      <point x="25" y="1548" type="line"/>
      <point x="25" y="1348" type="line"/>
      <point x="897" y="1348" type="line"/>
      <point x="897" y="1548" type="line"/>
    </contour>
    <contour>
      <point x="723" y="1548" type="line"/>
      <point x="723" y="140" type="line"/>
      <point x="923" y="140" type="line"/>
      <point x="923" y="1548" type="line"/>
    </contour>
    <contour>
      <point x="109" y="894" type="line"/>
      <point x="109" y="693" type="line"/>
      <point x="1443" y="693" type="line"/>
      <point x="1443" y="894" type="line"/>
    </contour>
    <contour>
      <point x="0" y="201" type="line"/>
      <point x="0" y="1" type="line"/>
      <point x="923" y="1" type="line"/>
      <point x="923" y="201" type="line"/>
    </contour>
    <contour>
      <point x="1835" y="1420" type="line"/>
      <point x="1835" y="2" type="line"/>
      <point x="2034" y="2" type="line"/>
      <point x="2034" y="1420" type="line"/>
    </contour>
    <contour>
      <point x="1326" y="2085" type="line"/>
      <point x="1326" y="1639" type="line"/>
      <point x="1526" y="1639" type="line"/>
      <point x="1526" y="2085" type="line"/>
    </contour>
    <contour>
      <point x="1332" y="1842" type="line"/>
      <point x="1332" y="1641" type="line"/>
      <point x="2047" y="1641" type="line"/>
      <point x="2047" y="1842" type="line"/>
    </contour>
    <contour>
      <point x="1847" y="2083" type="line"/>
      <point x="1847" y="1641" type="line"/>
      <point x="2047" y="1641" type="line"/>
      <point x="2047" y="2083" type="line"/>
    </contour>
  </outline>
</glyph>
<glyph name="uni0914" format="2">
  <advance width="2048"/>
  <unicode hex="0914"/>
  <outline>
    <contour>
      <point x="528" y="1548" type="line"/>
      <point x="528" y="1343" type="line"/>
      <point x="1016" y="1343" type="line"/>
      <point x="1016" y="1548" type="line"/>
    </contour>
    <contour>
      <point x="544" y="1419" type="line"/>
      <point x="544" y="1" type="line"/>
      <point x="743" y="1" type="line"/>
      <point x="743" y="1419" type="line"/>
    </contour>
    <contour>
      <point x="25" y="1548" type="line"/>
      <point x="25" y="1348" type="line"/>
      <point x="385" y="1348" type="line"/>
      <point x="385" y="1548" type="line"/>
    </contour>
    <contour>
      <point x="211" y="1548" type="line"/>
      <point x="211" y="140" type="line"/>
      <point x="411" y="140" type="line"/>
      <point x="411" y="1548" type="line"/>
    </contour>
    <contour>
      <point x="109" y="894" type="line"/>
      <point x="109" y="693" type="line"/>
      <point x="643" y="693" type="line"/>
      <point x="643" y="894" type="line"/>
    </contour>
    <contour>
      <point x="0" y="201" type="line"/>
      <point x="0" y="1" type="line"/>
      <point x="411" y="1" type="line"/>
      <point x="411" y="201" type="line"/>
    </contour>
    <contour>
      <point x="811" y="1420" type="line"/>
      <point x="811" y="2" type="line"/>
      <point x="1010" y="2" type="line"/>
      <point x="1010" y="1420" type="line"/>
    </contour>
    <contour>
      <point x="339" y="1750" type="line"/>
      <point x="619" y="1540" type="line"/>
      <point x="911" y="1546" type="line"/>
      <point x="475" y="1903" type="line"/>
    </contour>
    <contour>
      <point x="728" y="1949" type="line"/>
      <point x="791" y="1522" type="line"/>
      <point x="1003" y="1547" type="line"/>
      <point x="925" y="1988" type="line"/>
    </contour>
  </outline>
</glyph>
<glyph name="uni0915" format="2">
  <advance width="2048"/>
  <unicode hex="0915"/>
  <outline>
    <contour>
      <point x="0" y="1406" type="line"/>
      <point x="0" y="1280" type="line"/>
      <point x="2040" y="1278" type="line"/>
      <point x="2040" y="1404" type="line"/>
    </contour>
    <contour>
      <point x="998" y="1375" type="line"/>
      <point x="998" y="10" type="line"/>
      <point x="1177" y="10" type="line"/>
      <point x="1195" y="1375" type="line"/>
    </contour>
    <contour>
      <point x="224" y="1029" type="line"/>
      <point x="224" y="856" type="line"/>
      <point x="1082" y="856" type="line"/>
      <point x="1082" y="1029" type="line"/>
    </contour>
    <contour>
      <point x="224" y="987" type="line"/>
      <point x="218" y="512" type="line"/>
      <point x="388" y="516" type="line"/>
      <point x="390" y="989" type="line"/>
    </contour>
    <contour>
      <point x="242" y="671" type="line"/>
      <point x="242" y="516" type="line"/>
      <point x="1047" y="512" type="line"/>
      <point x="1047" y="677" type="line"/>
    </contour>
    <contour>
      <point x="1095" y="874" type="line"/>
      <point x="1095" y="746" type="line"/>
      <point x="1722" y="746" type="line"/>
      <point x="1722" y="874" type="line"/>
    </contour>
    <contour>
      <point x="1658" y="872" type="line"/>
      <point x="1654" y="587" type="line"/>
      <point x="1766" y="587" type="line"/>
      <point x="1767" y="879" type="line"/>
    </contour>
  </outline>
</glyph>
